<?xml version="1.0" encoding="UTF-8" standalone="no"?>
<svg
   xmlns:dc="http://purl.org/dc/elements/1.1/"
   xmlns:cc="http://creativecommons.org/ns#"
   xmlns:rdf="http://www.w3.org/1999/02/22-rdf-syntax-ns#"
   xmlns:svg="http://www.w3.org/2000/svg"
   xmlns="http://www.w3.org/2000/svg"
   xmlns:sodipodi="http://sodipodi.sourceforge.net/DTD/sodipodi-0.dtd"
   xmlns:inkscape="http://www.inkscape.org/namespaces/inkscape"
   viewBox="0 0 78.96 38.88"
   version="1.1"
   id="svg3735"
   sodipodi:docname="rybkin.svg"
   inkscape:version="0.92.2 (5c3e80d, 2017-08-06)">
  <metadata
     id="metadata3739">
    <rdf:RDF>
      <cc:Work
         rdf:about="">
        <dc:format>image/svg+xml</dc:format>
        <dc:type
           rdf:resource="http://purl.org/dc/dcmitype/StillImage" />
        <dc:title>Ресурс 2</dc:title>
      </cc:Work>
    </rdf:RDF>
  </metadata>
  <sodipodi:namedview
     pagecolor="#ffffff"
     bordercolor="#666666"
     borderopacity="1"
     objecttolerance="10"
     gridtolerance="10"
     guidetolerance="10"
     inkscape:pageopacity="0"
     inkscape:pageshadow="2"
     inkscape:window-width="1920"
     inkscape:window-height="1027"
     id="namedview3737"
     showgrid="false"
     showguides="false"
     inkscape:zoom="7.8021811"
     inkscape:cx="77.141144"
     inkscape:cy="6.7613482"
     inkscape:window-x="1272"
     inkscape:window-y="-3"
     inkscape:window-maximized="1"
     inkscape:current-layer="svg3735" />
  <linearGradient
     id="grad--linear-1"
     gradientTransform="scale(1.42547,0.701523)"
     x1="0"
     y1="0"
     x2="55.422274"
     y2="0"
     gradientUnits="userSpaceOnUse">
    <stop
       offset="0%"
       stop-color="crimson"
       class="stop-1"
       id="stop3720" />
    <stop
       offset="100%"
       stop-color="gold"
       class="stop-2"
       id="stop3722" />
  </linearGradient>
  <defs
     id="defs3727">
    <style
       id="style3725">
.cls-1{fill:url(#grad--linear-1);fill-rule:evenodd;}
stop {
    animation: colors 50s infinite;
}

.stop-1 {
    
}
.stop-2 {
    animation-delay: 3s;
}


@keyframes colors {
    15% {
        stop-color: crimson;
    }
    30% {
        stop-color: gold;
    }
    45% {
        stop-color: teal;
    }
    60% {
        stop-color: yellowgreen;
    }
    75% {
        stop-color: orangered;
    }
    90% {
        stop-color: purple;
    }
}
</style>
  </defs>
  <title
     id="title3729">Ресурс 2</title>
  <g
     id="Слой_2"
     data-name="Слой 2"
     transform="matrix(0.86234002,0,0,0.82983679,0,6.6159441)">
    <g
       id="Слой_1-2"
       data-name="Слой 1">
      <path
         class="cls-1"
         d="m 73.2,15.6 a 18.48,18.48 0 0 1 1.44,6 25.81,25.81 0 0 1 -1.2,6 c 0,0 5.41,-3.6 5.56,-6.24 0.15,-2.64 -5.8,-5.76 -5.8,-5.76 z M 0,7.92 c 0,0 1.85,7.86 1.71,13.56 A 93.62,93.62 0 0 1 0,34.8 l 4.14,-1.23 0.49,-8.63 2.68,-0.25 3.42,5.42 2.92,-2 -2.92,-3.91 a 5.51,5.51 0 0 0 4.15,-6.68 c -0.51,-2.78 -4,-5.18 -8.4,-7 C 4.63,9.76 0,7.92 0,7.92 Z m 4.39,5.43 0.49,8.13 a 37.57,37.57 0 0 0 4.14,0 2.93,2.93 0 0 0 2.68,-3.2 C 11.79,15 4.39,13.35 4.39,13.35 Z m 13.37,3.65 4.16,7.44 -1.71,3.6 c 0,0 1,0.8 2.69,1.92 4.1,-7.35 7.34,-20.6 7.34,-20.6 l -3.67,1.64 -2.94,9.84 -3.18,-6 z m 8.4,14.68 A 102.85,102.85 0 0 0 33.55,8.1 c 0,0 10.58,-4.28 12.77,2.53 2.19,6.81 -2.84,10.24 -2.84,10.24 0,0 6,2.73 0.92,10.57 C 42.55,34.11 38,38 31,34.37 29.5,33.65 26.19,31.72 26.16,31.72 Z M 36.55,11.23 34.94,18.46 40,18.7 c 0,0 2.6,0 3,-3.37 0.4,-3.37 -1.58,-4 -2.24,-4.08 -0.96,-0.07 -4.21,-0.02 -4.21,-0.02 z M 31.47,30.51 34,22.8 c 0,0 4.83,0.4 6,1 2.24,1.07 1.45,3.43 0.92,4.82 a 5.3,5.3 0 0 1 -4.85,3.14 14.19,14.19 0 0 1 -4.6,-1.25 z M 47.15,0 a 120.9,120.9 0 0 1 2.5,19.56 c 0.25,9.3 -5.49,19.32 -5.49,19.32 a 21.3,21.3 0 0 1 6,-1.43 c 2.75,-4.3 4.11,-14.89 4.11,-14.89 l 5.36,12 4.76,-2.48 L 58.11,20.75 63.8,10.29 A 39.92,39.92 0 0 0 59.6,8.11 88.57,88.57 0 0 1 54.24,19 c 0,0 -0.06,-10.49 -1.62,-16.1 A 19.13,19.13 0 0 1 47.15,0 Z m 22.93,29.27 -3.57,1.88 -0.27,-7.65 h 3.84 z m -1.92,-9 a 2,2 0 1 1 1.92,-2 1.95,1.95 0 0 1 -1.92,2.01 z"
         id="path3731"
         style="fill:url(#grad--linear-1);fill-rule:evenodd"
         inkscape:connector-curvature="0" />
    </g>
  </g>
  <path
     style="fill:none;stroke:url(#grad--linear-1);stroke-width:0.40000001;stroke-linecap:butt;stroke-linejoin:miter;stroke-miterlimit:4;stroke-dasharray:none;stroke-opacity:1"
     d="m 61.969851,27.665188 1.538032,-0.28838 c -1.478624,1.969075 -2.265864,5.083635 0.320423,6.248252 1.264114,0.52339 3.178789,0.193141 4.00529,-0.897188 3.883214,-5.122782 -1.025352,-19.257436 -1.025352,-19.257436 2.171549,5.213648 3.165936,11.800651 7.177481,14.867637 -0.189637,-7.341179 -5.172862,-14.313621 0.544719,-22.1092022"
     id="path4560"
     inkscape:connector-curvature="0"
     sodipodi:nodetypes="cccaccc" />
</svg>
